<svg id="svg" xmlns="http://www.w3.org/2000/svg" xmlns:xlink="http://www.w3.org/1999/xlink" width="40" height="40" viewBox="0, 0, 400,400"><g id="svgg"><path id="path0" d="M332.018 26.000 C 330.104 31.500,317.197 75.600,303.335 124.000 C 264.625 259.161,258.425 263.874,119.240 263.955 C 29.854 264.007,16.000 272.251,16.000 325.390 C 16.000 378.023,28.945 384.000,142.940 384.000 L 240.620 384.000 272.274 354.000 C 302.238 325.603,383.580 89.544,383.920 30.000 C 384.015 13.310,337.677 9.739,332.018 26.000 M38.000 68.576 C 8.246 84.717,8.246 115.283,38.000 131.424 C 50.100 137.989,57.063 143.504,53.474 143.680 C 49.885 143.856,39.985 140.273,31.474 135.719 C 17.542 128.262,16.000 130.234,16.000 155.513 C 16.000 193.774,44.189 208.000,120.000 208.000 C 195.811 208.000,224.000 193.774,224.000 155.513 C 224.000 130.234,222.458 128.262,208.526 135.719 C 200.015 140.273,190.115 143.856,186.526 143.680 C 182.937 143.504,189.900 137.989,202.000 131.424 C 232.574 114.837,231.804 84.446,200.397 68.205 C 169.250 52.098,67.947 52.329,38.000 68.576 M150.000 149.828 C 133.500 151.554,106.500 151.554,90.000 149.828 C 73.500 148.102,87.000 146.690,120.000 146.690 C 153.000 146.690,166.500 148.102,150.000 149.828 M208.000 324.000 L 208.000 368.000 144.000 368.000 L 80.000 368.000 80.000 324.000 L 80.000 280.000 144.000 280.000 L 208.000 280.000 208.000 324.000 " stroke="none" fill="#000000" fill-rule="evenodd"></path></g></svg>