<?xml version="1.0" standalone="no"?>
<!DOCTYPE svg PUBLIC "-//W3C//DTD SVG 20010904//EN"
 "http://www.w3.org/TR/2001/REC-SVG-20010904/DTD/svg10.dtd">
<svg version="1.0" xmlns="http://www.w3.org/2000/svg"
 width="340.000000pt" height="270.000000pt" viewBox="0 0 340.000000 270.000000"
 preserveAspectRatio="xMidYMid meet">
<metadata>
Created by potrace 1.15, written by Peter Selinger 2001-2017
</metadata>
<g transform="translate(0.000000,270.000000) scale(0.100000,-0.100000)"
fill="#000000" stroke="none">
<path d="M1594 2670 c-12 -4 -30 -19 -40 -32 -14 -17 -43 -30 -108 -46 -144
-35 -247 -91 -341 -186 -44 -45 -93 -85 -110 -91 -37 -13 -100 -101 -120 -169
-9 -31 -13 -68 -9 -96 7 -58 -11 -172 -30 -186 -27 -19 -36 -63 -36 -169 0
-77 6 -127 25 -198 14 -56 29 -152 35 -234 6 -76 18 -162 26 -192 19 -68 87
-203 195 -391 46 -80 95 -170 108 -200 70 -165 117 -246 176 -306 85 -86 118
-96 333 -96 92 0 181 4 197 8 56 13 102 43 149 95 59 66 85 110 145 248 27 60
85 171 129 248 99 172 187 345 200 398 6 22 16 103 22 180 7 81 22 182 36 238
22 85 25 115 22 223 -3 114 -5 127 -24 143 -27 21 -37 72 -38 191 -2 87 -5
100 -36 158 -35 67 -80 112 -109 112 -10 0 -34 20 -53 45 -80 102 -222 187
-379 226 -57 14 -90 28 -104 44 -11 12 -30 28 -42 34 -25 13 -188 14 -219 1z
m-52 -156 c27 -25 309 -25 336 -1 16 15 27 16 73 7 85 -15 234 -95 300 -161
l56 -56 0 -79 c-1 -69 3 -86 28 -133 32 -58 71 -91 112 -95 25 -3 29 -10 45
-72 27 -105 26 -107 -24 -84 -23 10 -48 30 -55 44 -16 30 -21 31 -43 11 -15
-13 -22 -13 -65 2 -27 9 -58 28 -71 42 -21 24 -22 24 -47 8 -24 -15 -48 -16
-232 -10 -113 3 -208 10 -211 15 -7 11 -71 11 -78 0 -3 -5 -97 -12 -210 -15
-182 -6 -208 -5 -234 10 -25 14 -32 15 -46 4 -9 -7 -16 -20 -16 -27 0 -8 -12
-16 -27 -20 -16 -3 -38 -9 -50 -14 -15 -6 -25 -5 -33 6 -18 21 -37 17 -56 -12
-17 -26 -72 -60 -81 -50 -11 11 33 161 47 162 8 1 23 2 32 2 23 3 75 57 100
105 16 32 21 60 21 120 l0 80 56 56 c63 62 185 132 272 155 71 19 79 19 101 0z
m-73 -608 l231 7 0 -621 c0 -408 -3 -622 -10 -622 -5 0 -10 4 -10 9 0 4 -26
11 -57 14 -74 8 -179 60 -262 131 -45 39 -71 54 -90 53 -20 -2 -27 3 -29 20
-2 12 -18 33 -35 46 -18 13 -45 37 -61 53 -16 17 -39 29 -54 29 -19 0 -27 7
-33 27 -4 16 -25 48 -47 73 -48 55 -63 108 -60 220 1 60 -7 111 -30 206 -49
195 -43 228 54 270 25 10 44 25 44 34 0 17 16 21 22 5 2 -7 28 -5 76 7 53 12
72 21 72 33 0 26 12 31 30 15 15 -14 48 -15 249 -9z m751 -4 c0 -23 135 -58
156 -41 11 9 14 8 14 -5 0 -10 20 -25 54 -40 30 -13 60 -34 66 -47 16 -29 8
-111 -25 -238 -17 -68 -25 -127 -25 -186 0 -116 -13 -162 -65 -225 -24 -30
-45 -63 -47 -74 -2 -16 -10 -21 -31 -19 -15 1 -27 -2 -27 -7 0 -4 -27 -30 -60
-57 -33 -26 -58 -53 -56 -60 7 -16 -20 -36 -39 -29 -9 3 -48 -21 -102 -64 -93
-75 -164 -108 -250 -117 -29 -3 -53 -10 -53 -14 0 -5 -4 -9 -10 -9 -7 0 -10
214 -10 623 l0 622 232 -8 c200 -7 233 -6 246 7 18 18 32 12 32 -12z m-1195
-872 c8 -36 24 -49 64 -54 37 -4 101 -60 101 -87 0 -21 46 -59 71 -59 10 0 44
-23 76 -51 89 -78 141 -101 326 -140 43 -9 63 -9 82 -1 14 7 39 12 55 12 37 0
163 45 210 75 19 13 53 41 75 64 26 27 48 41 65 41 34 0 70 26 70 52 0 31 79
99 106 92 26 -7 64 26 64 54 0 9 9 28 20 42 48 62 3 -84 -56 -182 -21 -35 -72
-99 -115 -143 -85 -90 -91 -100 -149 -246 -76 -189 -136 -281 -210 -319 -59
-30 -192 -45 -277 -30 -89 15 -144 48 -211 129 -73 87 -102 141 -129 239 -29
102 -48 138 -138 252 -37 47 -78 103 -91 126 -27 46 -64 147 -64 176 0 17 2
17 24 2 14 -8 28 -28 31 -44z"/>
<path d="M1310 1861 c-65 -7 -73 -23 -34 -70 48 -58 74 -65 242 -69 l152 -4 0
76 0 76 -152 -2 c-84 -1 -178 -4 -208 -7z"/>
<path d="M1111 1826 c-25 -6 -46 -17 -48 -23 -6 -17 32 -150 59 -211 l23 -51
65 44 c100 68 135 77 310 76 144 -1 150 -1 150 19 0 19 -6 20 -165 20 -145 0
-171 2 -204 20 -41 20 -86 67 -96 100 -7 23 -28 24 -94 6z"/>
<path d="M983 1791 c-69 -18 -82 -83 -34 -166 34 -57 118 -165 129 -165 4 0
13 9 19 19 10 16 8 30 -12 80 -14 33 -36 100 -50 148 -14 48 -26 87 -28 88 -1
1 -12 -1 -24 -4z m31 -78 c10 -37 30 -101 46 -142 16 -42 26 -79 22 -83 -18
-18 -152 189 -152 235 0 11 47 57 58 57 5 0 17 -30 26 -67z"/>
<path d="M1437 1640 c-97 -17 -202 -77 -249 -142 l-22 -31 50 -44 c76 -68 184
-148 233 -173 43 -21 155 -49 199 -50 l22 0 0 225 0 225 -92 -1 c-51 -1 -115
-5 -141 -9z"/>
<path d="M955 1505 c12 -39 25 -118 25 -154 0 -20 5 -53 11 -74 10 -39 46 -80
61 -71 4 3 8 42 8 87 -1 81 -1 83 -43 139 -23 31 -48 64 -55 75 -12 17 -13 17
-7 -2z"/>
<path d="M1127 1412 c-33 -36 -21 -66 56 -149 39 -43 99 -104 133 -135 l60
-57 78 30 c46 18 107 33 147 36 49 4 69 10 69 19 0 9 -12 14 -31 14 -115 0
-332 109 -470 237 -25 23 -26 23 -42 5z m39 -23 c13 -22 170 -132 234 -164 37
-18 93 -41 125 -51 l60 -17 -51 -13 c-27 -7 -75 -22 -105 -34 l-54 -21 -122
126 c-102 104 -123 131 -123 155 0 30 22 42 36 19z"/>
<path d="M1110 1167 l0 -92 76 -64 c75 -62 76 -63 91 -42 8 12 25 32 38 44
l24 22 -109 113 c-60 61 -112 112 -115 112 -3 0 -5 -42 -5 -93z"/>
<path d="M1593 1095 c-28 -8 -72 -24 -98 -36 l-46 -22 22 -24 c32 -33 136 -83
176 -83 l33 0 0 84 c0 67 -3 85 -16 90 -9 3 -16 6 -17 5 -1 0 -25 -7 -54 -14z"/>
<path d="M1384 1002 c-12 -10 -34 -34 -50 -56 l-28 -39 34 -29 c112 -94 197
-138 298 -152 l42 -6 0 79 0 79 -46 11 c-60 15 -155 63 -196 100 -32 28 -35
28 -54 13z m60 -39 c37 -31 138 -81 184 -89 l32 -6 0 -65 0 -65 -42 7 c-24 4
-61 15 -83 24 -45 20 -161 99 -187 128 -17 18 -16 21 13 56 17 20 35 37 41 37
5 0 24 -12 42 -27z"/>
<path d="M1747 1863 c-4 -3 -7 -38 -7 -76 l0 -69 153 3 c143 4 155 6 197 31
48 28 76 67 67 91 -3 9 -29 16 -74 20 -90 9 -328 9 -336 0z"/>
<path d="M2210 1826 c0 -19 -43 -70 -83 -98 -30 -21 -46 -23 -207 -28 -157 -4
-175 -7 -178 -23 -3 -16 8 -17 145 -16 176 2 208 -5 305 -71 40 -27 76 -46 80
-42 14 15 68 185 70 224 l3 41 -50 13 c-65 17 -85 17 -85 0z"/>
<path d="M2380 1717 c-12 -45 -35 -113 -50 -151 -28 -70 -28 -71 -9 -91 22
-22 9 -34 105 99 49 66 58 86 62 130 4 46 2 54 -19 67 -58 38 -65 33 -89 -54z
m76 38 c41 -41 29 -75 -70 -208 -27 -37 -53 -64 -58 -59 -4 4 4 35 17 68 14
34 35 98 47 143 13 44 27 81 31 81 4 0 19 -11 33 -25z"/>
<path d="M1744 1637 c-2 -7 -3 -107 -2 -222 l3 -210 48 2 c87 3 179 38 264
101 92 69 183 150 183 163 0 5 -19 30 -41 54 -48 52 -140 100 -218 115 -79 15
-230 13 -237 -3z"/>
<path d="M2440 1498 c-7 -12 -30 -47 -52 -76 l-39 -52 7 -84 c5 -64 10 -83 20
-79 28 11 46 57 55 146 5 51 14 107 20 125 13 40 6 53 -11 20z"/>
<path d="M2220 1388 c-128 -114 -301 -202 -421 -215 -40 -4 -59 -10 -59 -19 0
-10 15 -14 53 -14 44 0 158 -32 227 -64 19 -8 102 64 205 180 63 70 75 90 75
119 0 56 -26 61 -80 13z m60 -19 c0 -26 -19 -50 -123 -156 l-122 -124 -50 21
c-28 12 -74 27 -104 34 l-54 12 86 28 c86 28 217 105 305 179 24 20 48 37 53
37 5 0 9 -14 9 -31z"/>
<path d="M2180 1147 l-105 -112 40 -41 39 -42 72 59 c71 59 72 60 78 119 7 59
0 131 -13 129 -3 0 -53 -51 -111 -112z"/>
<path d="M1753 1103 c-9 -3 -13 -30 -13 -89 0 -81 1 -84 23 -84 44 0 116 32
159 69 l43 38 -42 22 c-47 23 -151 50 -170 44z"/>
<path d="M1976 991 c-30 -32 -126 -82 -193 -102 l-43 -12 0 -79 0 -78 43 6
c23 3 58 11 77 16 38 12 195 115 225 148 18 20 18 22 -11 62 -16 22 -38 47
-50 54 -18 13 -23 11 -48 -15z m73 -36 c17 -20 31 -39 31 -43 0 -24 -194 -149
-250 -161 -81 -19 -81 -19 -78 51 l3 61 68 23 c38 13 94 41 125 63 31 22 60
40 63 40 4 1 21 -15 38 -34z"/>
</g>
</svg>
